<?xml version="1.0" encoding="utf-8"?>
<svg xmlns="http://www.w3.org/2000/svg" viewBox="0 0 800 800" width="38pt" height="38pt">
<path fill="#FCC397" d="M400,100c-78.5,0-156.6,32.3-212.1,87.9S100,321.5,100,400s32.3,156.6,87.9,212.1S321.5,700,400,700
	s156.6-32.3,212.1-87.9C667.7,556.6,700,478.5,700,400s-32.3-156.6-87.9-212.1C556.6,132.3,478.5,100,400,100z"/>
<path fill="#FC9F95" d="M100,400c0,78.5,32.3,156.6,87.9,212.1S321.5,700,400,700s156.6-32.3,212.1-87.9
	C667.7,556.6,700,478.5,700,400s-32.3-156.6-87.9-212.1c-24.2-24.2-52.7-44-83.6-58.6c-25.2-2.1-50.6-0.3-75.2,5.6
	c-54.7,13-103.9,44.9-159.2,55c-33.7,6.2-68.9,3.8-101.6-6.5c-1.6,1.5-3.1,3-4.7,4.5C132.3,243.4,100,321.5,100,400z"/>
<path fill="#F77C88" d="M187.9,612.1C243.4,667.7,321.5,700,400,700s156.6-32.3,212.1-87.9C667.7,556.6,700,478.5,700,400
	c0-67.3-23.7-134.2-65.4-186.9c-43.4,27.1-94,42.7-145.2,44c-68.5,1.7-135.7-21.1-204.2-21.8c-55-0.6-109.8,13.9-157.9,40.4
	c-17.7,39-27.3,81.6-27.3,124.3C100,478.5,132.3,556.6,187.9,612.1z"/>
<path fill="#F25192" d="M187.9,612.1C243.4,667.7,321.5,700,400,700s156.6-32.3,212.1-87.9C667.7,556.6,700,478.5,700,400
	c0-16.2-1.4-32.3-4.1-48.3c-21.4-16.9-45.2-30.8-70.6-40.8c-52.1-20.5-110.4-24.9-164.9-12.3c-37.1,8.6-72,24.6-107.1,39.5
	s-71.1,28.9-109,33c-47.8,5.2-97-6.8-137.9-32.1c-4.3,20.1-6.5,40.5-6.5,61.1C100,478.5,132.3,556.6,187.9,612.1z"/>
<path fill="#D34CA3" d="M187.9,612.1C243.4,667.7,321.5,700,400,700s156.6-32.3,212.1-87.9c51.4-51.4,82.9-122,87.3-194.5
	c-60.1,22.6-127.2,27.2-189.6,11.7c-41.2-10.2-79.9-28.6-118.9-45.4s-79.3-32.4-121.5-36.6c-42.7-4.2-86.5,3.6-125.1,22.3
	c-15.8,7.6-30.6,17.1-44.3,28.1c0,0.8,0,1.5,0,2.3C100,478.5,132.3,556.6,187.9,612.1z"/>
<path fill="#9A50A5" d="M400,700c78.5,0,156.6-32.3,212.1-87.9c54.2-54.2,86.3-129.9,87.8-206.5c-50.4-17.9-106.4-20.3-157.8-5.6
	c-68.5,19.5-126,66.2-192.3,92.2c-74,29-158.3,29.9-233.5,4.3c14.8,43.3,39.3,83.2,71.6,115.6C243.4,667.7,321.5,700,400,700z"/>
<path fill="#59569E" d="M400,700c78.5,0,156.6-32.3,212.1-87.9c36.4-36.4,62.9-82.5,76.7-132.1c-20.5,14.1-42.7,25.5-66.1,34
	c-51.6,18.6-108.4,22.3-162,10.5c-66.4-14.6-126.7-52.1-194-61.3c-52-7.1-106.1,4.1-151.6,30.1c14.7,44.5,39.5,85.6,72.7,118.8
	C243.4,667.7,321.5,700,400,700z"/>
<path fill="#39477F" d="M400,700c78.5,0,156.6-32.3,212.1-87.9c18.8-18.8,34.9-40.2,48.1-63.3c-66.1-7.1-133.9,0.8-196.4,23.3
	c-32.7,11.8-64,27.4-97.3,37.2c-52,15.3-108.3,15.7-160.6,1.3c-9.6-2.7-19.1-5.8-28.4-9.4c3.4,3.7,6.8,7.4,10.4,10.9
	C243.4,667.7,321.5,700,400,700z"/>
</svg>
