<?xml version="1.0" encoding="UTF-8" standalone="no"?>
<svg width="80pt" height="38pt" viewBox="0 0 96 40" version="1.1" xmlns="http://www.w3.org/2000/svg" xmlns:xlink="http://www.w3.org/1999/xlink">
    <!-- Generator: Sketch 39.1 (31720) - http://www.bohemiancoding.com/sketch -->
    <title>Page 1 Copy 15</title>
    <desc>Created with Sketch.</desc>
    <defs></defs>
    <g id="logo-ratio-&amp;-clearance" stroke="none" stroke-width="1" fill="none" fill-rule="evenodd" transform="translate(0, 6)">
        <g id="logoWordmarkH-Small" transform="translate(-444.000000, -158.000000)">
            <g id="Page-1-Copy-15" transform="translate(445.000000, 159.000000)">
                <g id="mark-bw" transform="translate(0.065323, 0.000000)" stroke-width="1.5" stroke="#FFFFFF">
                    <g id="Group">
                        <path d="M12.7253446,0 C9.39554613,0 6.08271474,1.36653846 3.72852598,3.71884615 C1.37433722,6.07115385 -5.68434189e-14,9.37115385 -5.68434189e-14,12.6923077 C-5.68434189e-14,16.0134615 1.37009544,19.3176923 3.72852598,21.6657692 C6.08695652,24.0138462 9.39554613,25.3846154 12.7253446,25.3846154 C16.0551432,25.3846154 19.3679745,24.0180769 21.7221633,21.6657692 C24.0805938,19.3176923 25.4506893,16.0134615 25.4506893,12.6923077 C25.4506893,9.37115385 24.0805938,6.06692308 21.7221633,3.71884615 C19.3679745,1.36653846 16.0551432,0 12.7253446,0 L12.7253446,0 Z" id="Shape"></path>
                        <g id="Layer_1" transform="translate(-0.000000, 1.184615)">
                            <path d="M18.1760339,0.055 C17.107105,-0.0338461538 16.0296925,0.0423076923 14.9862142,0.291923077 C12.6659597,0.841923077 10.5790032,2.19153846 8.23329799,2.61884615 C6.8038176,2.88115385 5.3107105,2.77961538 3.92364793,2.34384615" id="Shape"></path>
                            <path d="M22.6765642,3.60038462 C20.835631,4.74692308 18.6892895,5.40692308 16.5174973,5.46192308 C13.611877,5.53384615 10.7613998,4.56923077 7.85577943,4.53961538 C5.52279958,4.51423077 3.19830329,5.12769231 1.15800636,6.24884615" id="Shape"></path>
                            <path d="M2.52258749,9.93879615 C1.73276776,9.70085769 0.973319194,9.35994231 0.271474019,8.92692308" id="Shape"></path>
                            <path d="M25.2767762,9.46423077 C24.369035,8.74923077 23.359491,8.16115385 22.2820785,7.73807692 C20.0721103,6.87076923 17.5991516,6.68461538 15.2873807,7.21769231 C13.7136797,7.58153846 12.233298,8.25846154 10.7444327,8.88884615 C10.1516013,9.13985769 9.55274655,9.38481923 8.94515376,9.5997" id="Shape"></path>
                            <path d="M16.3522375,12.4520846 C14.9820573,12.0089538 13.664772,11.396 12.3393425,10.8265385 C10.6850477,10.1157692 8.97560976,9.45576923 7.18557794,9.27807692 C5.37433722,9.10038462 3.5164369,9.43038462 1.87910923,10.2215385 C1.20890774,10.5430769 0.581124072,10.945 0,11.4103846" id="Shape"></path>
                            <path d="M25.4464475,11.7446154 C23.3085896,10.9873077 20.9331919,10.8857692 18.7529162,11.5076923 C15.9561824,12.3017654 13.5917285,14.1619923 10.9106257,15.2812" id="Shape"></path>
                            <path d="M24.9756098,14.8923077 C24.1060445,15.4888462 23.164369,15.9711538 22.1717922,16.3307692 C19.9830329,17.1176923 17.573701,17.2742308 15.300106,16.775 C12.4835631,16.1573077 9.92576882,14.5707692 7.07104984,14.1815385 C4.86532344,13.8811538 2.57051962,14.355 0.640509014,15.455" id="Shape"></path>
                            <path d="M23.7624602,17.8030769 C20.9586426,17.5026923 18.0827147,17.8369231 15.4316013,18.7888462 C14.0445387,19.2880769 12.7168611,19.9480769 11.3043478,20.3626923 C9.09862142,21.01 6.71049841,21.0269231 4.49204666,20.4176923 C4.08483563,20.3034615 3.68186638,20.1723077 3.2873807,20.02" id="Shape"></path>
                        </g>
                    </g>
                </g>
                <path d="M60.0388813,3.98042343 L63.2179265,3.98042343 L63.2179265,18.8936407 L60.0388813,18.8936407 L60.0388813,3.98042343 Z M31.454986,18.8855498 L34.5913426,18.8855498 L34.5913426,12.7346818 C34.5913426,11.7189192 34.8421331,10.4590883 35.877819,10.4590883 C36.3529768,10.4590883 36.7644778,10.5848979 37.1460753,10.906494 C37.1583094,10.9187011 38.2888992,8.28490366 38.2766651,8.29711079 C37.5737071,7.65323709 36.8403686,7.50025999 36.3055853,7.50025999 C35.1444738,7.50025999 34.175132,8.20534477 33.7867556,9.25980713 L33.1706395,7.81295545 L31.454986,7.81295545 L31.454986,18.8855498 Z M64.9987864,18.8855498 L68.1343435,18.8855498 L68.1343435,12.7346818 C68.1343435,11.7189192 68.7348595,10.5134974 69.7706126,10.5134974 C70.8090531,10.5134974 70.8971781,11.952798 70.8971781,12.639481 C70.9025528,12.6592324 70.9005373,18.8854823 70.9005373,18.8854823 L74.0382376,18.8854823 L74.0382376,12.7808651 C74.0382376,11.3912499 74.8115908,10.5264468 75.6521278,10.5264468 C76.6756736,10.5264468 76.8315401,11.663228 76.8315401,12.7346818 L76.8383257,18.8854823 L79.9631132,18.8854823 L79.9631132,11.7536376 C79.9631132,10.3285617 79.4743508,7.4744354 76.3869175,7.4744354 C74.9201599,7.4744354 74.0687391,7.96054091 73.3794329,9.19043096 C72.7354758,8.03329107 71.5587979,7.46971855 70.3970146,7.46971855 C69.2359032,7.46971855 67.9785307,8.0829091 67.330556,9.34887395 L66.7143795,7.81369773 L64.9988536,7.81369773 L64.9987864,18.8855498 Z M41.5139251,11.9609564 L45.2046895,11.9609564 C45.1165712,10.4741296 44.237437,9.94783972 43.3813537,9.94783972 C42.5259489,9.94783972 41.6183086,10.642681 41.5139251,11.9609564 L41.5139251,11.9609564 Z M44.4096426,16.4298111 C45.7802064,16.4298111 46.8375994,15.7859441 46.8375994,15.7859441 L47.7241977,18.2532098 C47.2782112,18.4965993 45.8039357,19.1153198 44.0504375,19.1153198 C40.0159808,19.1153198 38.395305,16.4365523 38.395305,13.2323129 C38.395305,10.2055188 40.2105116,7.45333441 43.4437339,7.45333441 C46.6200178,7.45333441 48.7843519,10.0974428 48.2176428,14.3398347 L41.4712365,14.3398347 C41.6183086,15.850536 42.9264922,16.4298111 44.4096426,16.4298111 L44.4096426,16.4298111 Z M51.967361,15.558874 C51.967361,16.3100746 53.1793575,17.0281088 54.1926577,16.4848275 C55.180885,15.9550355 55.0988804,15.1257605 55.0988804,13.9536468 C53.2274141,13.9537143 51.967361,14.6315642 51.967361,15.558874 L51.967361,15.558874 Z M56.4850375,18.8909435 L55.8207976,17.5978119 C55.5035287,18.0655777 54.4696567,19.2111927 52.5658615,19.2111927 C50.4591376,19.2111927 48.8635348,17.7133713 48.8635348,15.9620466 C48.8635348,14.1834836 50.0979102,11.8345461 55.1063445,11.8345461 C55.1063445,10.6542741 54.0861848,10.2150267 53.0084216,10.2150267 C52.1835317,10.2150267 51.0101861,10.5638644 50.0091201,11.511533 L49.0561106,8.82123451 C49.7142367,8.41132065 51.232605,7.36157514 53.493798,7.36157514 C56.8633363,7.36157514 58.2399466,9.40186597 58.2399466,12.6897806 L58.2399466,18.8916176 L56.4851047,18.8916176 L56.4851047,18.8909435 L56.4850375,18.8909435 Z" id="Fill-10" fill="#FFFFFF"></path>
            </g>
        </g>
    </g>
</svg>